<svg xmlns="http://www.w3.org/2000/svg" height="1296" width="1546" version="1.1" xmlns:xlink="http://www.w3.org/1999/xlink" xmlns:svgjs="http://svgjs.com/svgjs"><rect fill="none" width="1546" height="1296"></rect><g><path d="M1183 322.4H1099.1C1099.1 322.4 1089.4 372 1118.6 398.3H1202.5C1173.3 372 1183 322.4 1183 322.4Z" fill="none" opacity="1" stroke-width="4" stroke="none"></path><path d="M1065.4 279.5H981.5C981.5 279.5 971.8 329.1 1001 355.4H1084.9C1055.6 329.1 1065.4 279.5 1065.4 279.5Z" fill="#003fa3" opacity="1" stroke-width="4" stroke="none"></path></g><g><path d="M1006.85 477.23L933.5 430.62C931.91 434.63 931.09 438.86 931.12 443.19L931.26 494.81C931.31 513.36 946.37 528.32 964.92 528.27L1049.12 528.02C1067.66 527.97 1082.63 512.91 1082.58 494.36L1082.44 442.74C1082.4 438.46 1081.59 434.17 1079.98 430.21L1006.85 477.23Z" fill="#619eff" opacity="1" stroke-width="4" stroke="none"></path><path d="M1079.96 430.11C1075.19 417.33 1062.45 409.23 1048.74 409.27L964.53 409.53C950.86 409.58 938.19 417.96 933.53 430.56L1006.81 477.22 1073.38 434.38Z" fill="#619eff" opacity="1" stroke-width="4" stroke="none"></path><path d="M1021.43 468.72L1079.9 507.39" stroke="#121212" stroke-width="4" stroke-linecap="round" stroke-linejoin="round" opacity="1" fill="none"></path><path d="M992.26 468.83L933.91 507.77" stroke="#121212" stroke-width="4" stroke-linecap="round" stroke-linejoin="round" opacity="1" fill="none"></path><path d="M996.37 439.16L1017.1 439.1" stroke="#ffffff" stroke-width="4" stroke-linecap="round" opacity="1" fill="none"></path><path d="M933.58 430.65L1006.88 477.32 1079.77 430.27" stroke="#121212" stroke-width="4" stroke-linecap="round" stroke-linejoin="round" opacity="1" fill="none"></path></g><g><path d="M479.17 757.1H703.12C714.61 757.1 724.01 766.49 724.01 777.99V1034.71C724.01 1046.21 714.61 1055.6 703.12 1055.6H479.17C467.68 1055.6 458.29 1046.21 458.29 1034.71V777.99C458.29 766.39 467.68 757.1 479.17 757.1Z" fill="#619eff" opacity="1" stroke-width="4" stroke="none"></path><path d="M505.95 823.06L515.15 832.25 530.04 817.46" stroke="#ffffff" stroke-width="4" stroke-linecap="round" stroke-linejoin="round" opacity="1" fill="none"></path><path d="M523.86 912.72C528.49 909.51 529.64 903.16 526.44 898.54 523.23 893.9 516.89 892.75 512.26 895.96 507.62 899.15 506.47 905.51 509.67 910.14 512.88 914.76 519.24 915.92 523.86 912.72Z" stroke="#ffffff" stroke-width="4" stroke-linecap="round" stroke-linejoin="round" opacity="1" fill="none"></path><path d="M523.85 992.06C528.48 988.85 529.64 982.51 526.43 977.88 523.23 973.26 516.88 972.1 512.25 975.3 507.62 978.5 506.46 984.86 509.67 989.48 512.88 994.11 519.23 995.27 523.85 992.06Z" stroke="#ffffff" stroke-width="4" stroke-linecap="round" stroke-linejoin="round" opacity="1" fill="none"></path><path d="M558.92 826.75H651.86" stroke="#351DC2" stroke-width="4" stroke-linecap="round" stroke-linejoin="round" opacity="1" fill="none"></path><path d="M558.92 904.4H651.86" stroke="#351DC2" stroke-width="4" stroke-linecap="round" stroke-linejoin="round" opacity="1" fill="none"></path><path d="M558.92 983.05H651.86" stroke="#351DC2" stroke-width="4" stroke-linecap="round" stroke-linejoin="round" opacity="1" fill="none"></path></g><g><path d="M328.49 599.45C319.61 599.44 311.09 595.91 304.81 589.63 298.53 583.35 295 574.83 294.99 565.96V248.49C295 239.62 298.53 231.1 304.81 224.82 311.09 218.54 319.61 215.01 328.49 215H740.36C749.24 215.01 757.75 218.54 764.03 224.82 770.31 231.1 773.84 239.62 773.86 248.49V565.96C773.84 574.83 770.31 583.35 764.03 589.63 757.75 595.91 749.24 599.44 740.36 599.45H328.49Z" fill="#cecece" opacity="1" stroke-width="4" stroke="none"></path><path d="M295.01 286.96H775.33" stroke="#e1e1e1" stroke-width="4" opacity="1" fill="none"></path><path d="M330.23 262.98C337.27 262.98 342.97 257.28 342.97 250.24 342.97 243.2 337.27 237.5 330.23 237.5 323.2 237.5 317.49 243.2 317.49 250.24 317.49 257.28 323.2 262.98 330.23 262.98Z" fill="#e1e1e1" opacity="1" stroke-width="4" stroke="none"></path><path d="M368.84 262.98C375.87 262.98 381.58 257.28 381.58 250.24 381.58 243.2 375.87 237.5 368.84 237.5 361.8 237.5 356.1 243.2 356.1 250.24 356.1 257.28 361.8 262.98 368.84 262.98Z" fill="#e1e1e1" opacity="1" stroke-width="4" stroke="none"></path><path d="M407.43 262.98C414.47 262.98 420.17 257.28 420.17 250.24 420.17 243.2 414.47 237.5 407.43 237.5 400.4 237.5 394.7 243.2 394.7 250.24 394.7 257.28 400.4 262.98 407.43 262.98Z" fill="#e1e1e1" opacity="1" stroke-width="4" stroke="none"></path></g><g><path d="M425.6 384.45H373.8V545.71H425.6V384.45Z" fill="#619eff" opacity="1" stroke-width="4" stroke="none"></path><path d="M613.02 360.88H561.21V545.71H613.02V360.88Z" fill="#a0cfff" opacity="1" stroke-width="4" stroke="none"></path><path d="M519.25 326.82H467.44V545.71H519.25V326.82Z" fill="#351DC2" opacity="1" stroke-width="4" stroke="none"></path><path d="M706.67 452.58H654.86V545.71H706.67V452.58Z" fill="#351DC2" opacity="1" stroke-width="4" stroke="none"></path><path d="M347.89 545.71H732.57" stroke="#000000" stroke-width="4" stroke-linecap="round" stroke-linejoin="round" opacity="1" fill="none"></path></g><g><path d="M1016.81 664.75H1211.92C1227.67 664.75 1240.43 677.5 1240.43 693.25V889.5C1240.43 905.25 1227.67 918 1211.92 918H1016.81C1001.05 918 988.3 905.25 988.3 889.5V693.25C988.3 677.5 1001.05 664.75 1016.81 664.75Z" fill="#72a5da" opacity="0.3" stroke-width="4" stroke="none"></path><path d="M1006.96 654.9H1202.07C1217.83 654.9 1230.58 667.65 1230.58 683.41V879.65C1230.58 895.41 1217.83 908.16 1202.07 908.16H1006.96C991.21 908.16 978.45 895.41 978.45 879.65V683.41C978.45 667.65 991.21 654.9 1006.96 654.9Z" fill="#a0cfff" opacity="1" stroke-width="4" stroke="none"></path><path d="M1012.43 677.15H1190.65C1200.45 677.15 1208.38 685.08 1208.38 694.88V720.77C1208.38 730.57 1200.45 738.5 1190.65 738.5H1012.43C1002.63 738.5 994.7 730.57 994.7 720.77V694.88C994.7 685.08 1002.63 677.15 1012.43 677.15Z" fill="#351DC2" opacity="1" stroke-width="4" stroke="none"></path><path d="M1147.03 867.98V768.73C1147.03 758.93 1154.96 751 1164.75 751H1190.65C1200.45 751 1208.38 758.93 1208.38 768.73V867.98C1208.38 877.78 1200.45 885.71 1190.65 885.71H1164.75C1154.96 885.71 1147.03 877.78 1147.03 867.98Z" fill="#ffffff" opacity="1" stroke-width="4" stroke="none"></path><path d="M1073.97 867.98V842.38C1073.97 832.58 1081.89 824.66 1091.69 824.66H1117.29C1127.09 824.66 1135.02 832.58 1135.02 842.38V867.98C1135.02 877.78 1127.09 885.71 1117.29 885.71H1091.69C1081.89 885.71 1073.97 877.78 1073.97 867.98Z" fill="#351DC2" opacity="1" stroke-width="4" stroke="none"></path><path d="M1073.97 794.33V768.73C1073.97 758.93 1081.89 751 1091.69 751H1117.29C1127.09 751 1135.02 758.93 1135.02 768.73V794.33C1135.02 804.13 1127.09 812.05 1117.29 812.05H1091.69C1081.89 812.05 1073.97 804.13 1073.97 794.33Z" fill="#351DC2" opacity="1" stroke-width="4" stroke="none"></path><path d="M1000.61 867.98V842.38C1000.61 832.58 1008.54 824.66 1018.33 824.66H1043.94C1053.73 824.66 1061.66 832.58 1061.66 842.38V867.98C1061.66 877.78 1053.73 885.71 1043.94 885.71H1018.33C1008.54 885.71 1000.61 877.78 1000.61 867.98Z" fill="#351DC2" opacity="1" stroke-width="4" stroke="none"></path><path d="M1000.61 794.33V768.73C1000.61 758.93 1008.54 751 1018.33 751H1043.94C1053.73 751 1061.66 758.93 1061.66 768.73V794.33C1061.66 804.13 1053.73 812.05 1043.94 812.05H1018.33C1008.54 812.05 1000.61 804.13 1000.61 794.33Z" fill="#351DC2" opacity="1" stroke-width="4" stroke="none"></path><path d="M1158.65 724.76V692.71L1142.4 711.42H1164.07" stroke="#ffffff" stroke-width="4" stroke-linecap="round" stroke-linejoin="round" opacity="1" fill="none"></path><path d="M1175.59 704.48C1181.05 702.8 1186.81 705.91 1188.48 711.32 1190.16 716.74 1187.06 722.55 1181.64 724.22 1177.56 725.45 1173.12 724.07 1170.51 720.73" stroke="#ffffff" stroke-width="4" stroke-linecap="round" stroke-linejoin="round" opacity="1" fill="none"></path><path d="M1170.96 692.71H1186.71L1175.39 704.53" stroke="#ffffff" stroke-width="4" stroke-linecap="round" stroke-linejoin="round" opacity="1" fill="none"></path><path d="M1185.14 822.64H1171.5" stroke="#351DC2" stroke-width="4" stroke-linecap="round" stroke-linejoin="round" opacity="1" fill="none"></path><path d="M1185.14 814.42H1171.5" stroke="#351DC2" stroke-width="4" stroke-linecap="round" stroke-linejoin="round" opacity="1" fill="none"></path></g><g><path d="M1319.9 650.99L1274.35 482.31 1171.66 510.05 1147.78 551.61 1184.48 687.56 1319.9 650.99Z" fill="#619eff" opacity="1" stroke-width="4" stroke="none"></path><path d="M1175.19 550.52L1171.66 510.05 1147.78 551.61 1175.19 550.52Z" fill="#181818" opacity="0.2" stroke-width="4" stroke="none"></path><path d="M1180.5 542.77L1171.66 510.05 1147.78 551.61 1180.5 542.77Z" fill="#ffffff" opacity="1" stroke-width="4" stroke="none"></path><path d="M1186.3 563.98L1250.06 546.76" stroke="#ffffff" stroke-width="4" stroke-linecap="round" opacity="1" fill="none"></path><path d="M1198.94 610.79L1249.7 597.11" stroke="#ffffff" stroke-width="4" stroke-linecap="round" opacity="1" fill="none"></path><path d="M1192.64 587.36L1231.03 577.03" stroke="#ffffff" stroke-width="4" stroke-linecap="round" opacity="1" fill="none"></path></g><g><path d="M676.71 916L715.81 700.02C715.81 700.02 715.81 699.94 715.89 699.94 735.97 693.35 785.28 693.76 799.68 696.73 857.62 710.88 899.03 728.99 924.13 778.13 924.13 778.13 924.13 778.13 924.13 778.21 923.97 780.02 912.03 889.9 911.7 892.87 911.7 892.87 911.7 892.95 911.62 892.95L856.97 898.05H856.88L840.34 922.91H840.26L676.79 916.08C676.79 916.08 676.71 916.08 676.71 916Z" fill="#003fa3" opacity="1" stroke-width="4" stroke="none"></path><path d="M1016.89 1129.75C980.02 1128.52 939.52 1127.94 920.34 1092.3V1092.22C920.84 1091.31 929.97 1073.53 949.23 1064.15 957.05 1060.36 986.44 1059.29 987.92 1059.29 987.92 1059.29 988 1059.29 988 1059.38 989.48 1063.74 990.31 1066.37 990.47 1066.78 990.47 1066.78 990.47 1066.87 990.55 1066.87 1017.39 1067.61 1050.47 1071.56 1061.91 1085.47 1072.2 1090.16 1075.41 1096.5 1073.85 1102.75V1102.84C1074.34 1103.25 1080.35 1109.01 1077.06 1112.79 1072.78 1118.56 1060.68 1115.84 1051.05 1114.69 1038.13 1112.79 1028.66 1111.56 1026.52 1111.31 1026.44 1111.31 1026.36 1111.4 1026.44 1111.48 1028.83 1112.71 1040.1 1119.13 1038.95 1124.98 1038.37 1128.02 1030.72 1129.75 1016.89 1129.75Z" fill="#e5ac95" opacity="1" stroke-width="4" stroke="none"></path><path d="M898.94 1051.97C898.94 1051.97 898.86 1051.97 898.86 1051.89 892.11 1037.24 886.19 1022.17 881.17 1006.95 861.33 944.8 856.88 899.53 856.8 898.3 857.79 896.82 904.79 822 924.05 778.29 924.05 778.21 924.13 778.21 924.21 778.29 943.23 817.72 947.75 901.76 958.21 953.2 960.92 967.36 965.2 984.56 974.01 1014.77V1014.85C973.76 1015.26 971.13 1019.05 970.96 1019.13 965.7 1021.43 901.33 1050.9 898.94 1051.97Z" fill="#351DC2" opacity="1" stroke-width="4" stroke="none"></path><path d="M920.26 1092.14C912.44 1079.21 905.2 1065.71 898.94 1051.97V1051.89L973.93 1014.93C974.01 1014.93 974.01 1014.93 974.01 1015.01 980.51 1036.82 986.27 1054.36 987.92 1059.29V1059.38C985.7 1060.45 922.65 1091.23 920.34 1092.3 920.34 1092.22 920.34 1092.22 920.26 1092.14Z" fill="#000000" opacity="1" stroke-width="4" stroke="none"></path><path d="M832.03 766.69C821.49 766.69 811.7 762.74 803.63 755.17 782.97 735.82 789.39 715.82 799.43 697.14 799.52 696.97 804.54 687.18 811.45 674.42 819.19 660.18 833.51 646.77 842.73 633.27 856.8 612.77 867.58 598.2 892.11 598.2 928.16 596.8 965.45 629.07 952.86 664.96 948.82 675.82 944.3 683.06 939.85 690.14 936.89 694.83 934.09 699.28 931.62 704.55 921.91 726.77 904.46 752.28 874 736.98H873.92C871.37 741.67 868.57 746.44 865.11 750.72 857.87 759.61 847.83 766.52 832.03 766.69Z" fill="#e5ac95" opacity="1" stroke-width="4" stroke="none"></path><path d="M837.21 681.25C820.59 681.25 812.19 675.08 811.53 674.5V674.42C818.78 661.17 829.31 642.57 838.78 628.74 852.85 608.24 866.43 591.21 891.04 591.21 914.42 591.12 937.3 604.62 948.74 625.61 956.07 638.95 957.63 652.86 953.1 664.79L953.02 664.87C951.62 664.71 927.92 661.99 912.69 645.53H912.61C904.71 654.67 883.8 662.07 882.4 662.57 882.32 662.57 882.32 662.57 882.32 662.49 881.91 660.92 875.16 637.38 859.93 637.38 839.43 637.63 837.46 667.92 848.65 680.18 848.74 680.26 848.65 680.35 848.57 680.35 844.54 680.92 840.75 681.25 837.21 681.25Z" fill="#a56250" opacity="1" stroke-width="4" stroke="none"></path><path d="M952.03 1160.29C940.67 1160.29 927.34 1158.64 912.52 1155.43 880.84 1148.6 759.1 919.04 755.56 912.29 755.56 912.21 755.56 912.21 755.64 912.21L840.34 922.99C841.41 923.49 911.62 954.52 986.03 1024.97 1019.77 1058.22 1023.39 1090.57 1012.2 1118.89 1009.9 1124.81 1006.85 1130.49 1003.39 1136.09 989.73 1155.84 975.74 1159.79 952.03 1160.29Z" fill="#a0cfff" opacity="1" stroke-width="4" stroke="none"></path><path d="M952.03 1160.29C940.67 1160.29 927.34 1158.64 912.52 1155.43 884.54 1152.88 762.56 926.53 755.48 912.21 755.48 912.13 755.48 912.13 755.56 912.13 758.94 912.54 820.26 920.36 821.99 920.52H822.07C847.34 963.73 936.31 1091.81 1012.2 1118.72 1012.28 1118.72 1012.28 1118.8 1012.28 1118.8 999.69 1149.34 983.23 1160.29 952.03 1160.29Z" fill="#65b1ff" opacity="0.3" stroke-width="4" stroke="none"></path><path d="M878.7 1206.21C854.74 1205.89 779.27 1187.7 722.89 1174.44 704.61 1170.16 688.56 1166.38 676.63 1163.83 676.63 1163.83 676.55 1163.83 676.55 1163.74 675.89 1161.19 644.69 1048.43 644.53 1047.77 640.17 1039.54 637.2 1030.82 635.23 1022.09 633.75 1001.76 632.02 986.2 637.61 968.43 638.52 965.55 639.84 962.66 640.99 959.78 649.38 938.96 664.04 919.37 684.37 903.32 684.37 903.32 684.37 903.32 684.45 903.32 686.42 903.57 783.71 915.83 785.19 916 816.55 936.98 941.66 1048.35 948.66 1107.36 960.67 1166.79 927.92 1204.16 878.7 1206.21Z" fill="#a0cfff" opacity="1" stroke-width="4" stroke="none"></path><path d="M641.07 959.78C640.99 959.78 640.99 959.7 640.99 959.7 643.46 953.61 646.34 947.68 649.96 941.76 658.36 928.26 669.96 915.25 684.37 903.32 684.37 903.32 684.37 903.32 684.45 903.32L743.05 910.65C743.13 910.65 743.13 910.73 743.13 910.81 707.66 955.42 644.28 959.7 641.07 959.78Z" fill="#65b1ff" opacity="0.3" stroke-width="4" stroke="none"></path><path d="M637.45 1022.17C636.71 1022.17 636.05 1022.17 635.31 1022.09 635.31 1022.09 635.23 1022.09 635.23 1022.01 631.36 1004.23 632.18 985.79 637.61 968.43 637.61 968.34 637.7 968.34 637.7 968.34L673.09 976.25C673.17 976.25 673.17 976.33 673.17 976.33L668.48 997.15C665.27 1011.72 652.18 1022.17 637.45 1022.17Z" fill="#351DC2" opacity="1" stroke-width="4" stroke="none"></path><path d="M676.55 1163.74C648.31 1157.65 643.71 1154.85 623.62 1154.11 609.88 1154.2 594.49 1157.82 578.68 1159.88 570.78 1161.11 562.47 1159.88 555.47 1156.25 555.39 1156.25 555.39 1156.17 555.47 1156.17 556.38 1154.85 569.79 1135.43 576.62 1128.84 602.47 1104.07 653.42 1062.26 655.31 1060.78H655.39C661.9 1067.11 673.25 1076.09 690.54 1083 690.54 1083 690.54 1083 690.62 1083 691.03 1083.82 699.68 1102.34 695.72 1125.22 693.09 1140.04 677.37 1162.67 676.55 1163.74Z" fill="#351DC2" opacity="1" stroke-width="4" stroke="none"></path><path d="M555.31 1156.17C550.37 1153.7 546.01 1150 542.55 1145.39V1145.31L644.45 1047.85C644.45 1047.85 644.53 1047.85 644.61 1047.85 645.02 1048.59 648.31 1053.86 655.31 1060.61V1060.69C652.59 1063.25 557.69 1154.03 555.47 1156.09 555.39 1156.17 555.39 1156.17 555.31 1156.17Z" fill="#003fa3" opacity="1" stroke-width="4" stroke="none"></path><path d="M722.8 1174.36C707.08 1170.74 691.53 1167.2 676.63 1163.74 676.55 1163.74 676.55 1163.66 676.55 1163.66 677.04 1161.03 689.96 1086.13 690.46 1083.08 690.46 1083 690.54 1083 690.54 1083 704.28 1088.51 719.68 1091.97 736.22 1093.29 736.3 1093.29 736.3 1093.37 736.3 1093.37 736.14 1094.36 734.66 1103.41 732.68 1115.26 728.81 1138.64 723.22 1172.39 722.8 1174.28 722.89 1174.36 722.8 1174.36 722.8 1174.36Z" fill="#351DC2" opacity="1" stroke-width="4" stroke="none"></path><path d="M902.4 676.07C906.43 676.15 906.43 682.08 902.4 682.16 898.37 682.08 898.37 676.15 902.4 676.07Z" fill="#000000" opacity="1" stroke-width="4" stroke="none"></path><path d="M925.61 690.14C929.64 690.22 929.64 696.15 925.61 696.23 921.58 696.15 921.58 690.22 925.61 690.14Z" fill="#000000" opacity="1" stroke-width="4" stroke="none"></path><path d="M873.26 877.15C871.37 877.15 869.64 876.73 868.24 875.91L835.32 857.56C833.51 856.57 832.44 855.09 832.27 853.36 832.11 851.55 832.93 849.57 834.66 848.09L893.18 795.66C896.31 792.7 902.48 791.71 906.35 793.93L939.27 812.29C943.23 814.43 943.31 818.95 939.93 821.75L881.41 874.18C879.35 876.08 876.31 877.15 873.26 877.15Z" fill="#3298ff" opacity="1" stroke-width="4" stroke="none"></path><path d="M923.88 825.29C918.2 825.29 918.7 819.12 923.72 817.06 925.94 815.91 929.81 815.99 930.88 818.3 932.44 821.34 927.5 825.54 923.88 825.29Z" fill="#351DC2" opacity="1" stroke-width="4" stroke="none"></path><path d="M915.65 830.07C913.35 830.07 913.59 827.6 915.57 826.69 916.48 826.2 918.04 826.28 918.45 827.18 919.11 828.5 917.05 830.15 915.65 830.07Z" fill="#351DC2" opacity="1" stroke-width="4" stroke="none"></path><path d="M784.12 830.97C810.87 826.86 839.52 823.07 860.18 823.48 861.41 823.48 862.48 824.06 861.9 825.21 859.35 830.23 846.51 837.97 846.51 837.97 845.2 838.54 845.44 840.35 846.68 841.18 849.97 843.32 856.8 846.69 868 847.27 875.98 847.84 906.27 847.84 910.8 847.52 910.8 847.52 910.8 847.52 910.88 847.52 918.12 853.69 910.96 860.68 905.45 863.73 905.36 863.81 905.28 863.81 905.2 863.89 906.68 867.27 906.76 870.4 905.45 873.11 902.89 878.3 895.73 880.36 894.99 880.6 894.91 880.6 894.91 880.69 894.99 880.69 900.75 892.04 885.45 896.08 881.58 896.41 881.58 896.41 881.49 896.41 881.49 896.49 880.92 904.39 866.51 904.47 857.87 904.72 837.13 904.72 809.72 899.7 809.31 899.62 809.15 899.7 804.87 901.67 797.7 904.88H797.62C796.72 904.06 779.6 887.6 775.73 868.59 772.44 852.7 782.72 833.85 784.12 830.97Z" fill="#e5ac95" opacity="1" stroke-width="4" stroke="none"></path><path d="M661.73 942.42C582.88 942.09 597.28 865.87 629.05 801.01 629.14 800.93 650.7 785.37 652.02 784.47 652.02 784.47 652.1 784.38 652.02 784.38 651.44 783.48 644.61 771.71 652.51 759.61 666.26 738.46 680.33 721.67 689.96 714.18 697.7 708.25 706.34 703.64 715.56 700.35H715.64C726.67 719.69 726.67 753.35 722.8 783.97 719.59 809.65 713.59 833.11 709.31 844.22 709.31 844.31 709.31 844.31 709.39 844.31 710.79 843.98 721.73 841.75 737.21 838.95 737.21 838.95 737.29 838.95 737.29 839.04L753.83 872.37 752.6 922.91C752.6 922.91 752.6 922.99 752.52 922.99 716.14 935.91 685.6 942.42 661.73 942.42Z" fill="#351DC2" opacity="1" stroke-width="4" stroke="none"></path><path d="M737.37 839.04C754.82 835.83 770.05 833.19 784.04 830.97 784.12 830.97 784.12 830.97 784.12 831.05L797.62 904.88C797.62 904.88 797.62 904.97 797.54 904.97 787.25 909.66 771.12 916.49 752.68 923.07 752.6 923.07 752.6 923.07 752.6 922.99 752.02 920.03 737.87 841.92 737.29 839.12 737.29 839.04 737.29 839.04 737.37 839.04Z" fill="#000000" opacity="1" stroke-width="4" stroke="none"></path><path d="M638.44 802.66C635.23 802.66 632.1 802.16 629.14 801.09 629.05 801.09 629.05 801.01 629.05 801.01 636.05 786.77 643.87 772.86 652.43 759.69 652.43 759.69 652.51 759.61 652.51 759.69L673.09 772.29C673.09 772.29 673.17 772.37 673.09 772.37 664.12 786.69 658.44 802.41 638.44 802.66Z" fill="#003fa3" opacity="1" stroke-width="4" stroke="none"></path><path d="M736.47 1093.37L833.67 1101.85C833.76 1101.85 833.76 1102.01 833.67 1102.01L732.85 1115.26C732.76 1115.26 732.76 1115.26 732.76 1115.18L736.38 1093.45C736.38 1093.37 736.38 1093.37 736.47 1093.37Z" fill="#65b1ff" opacity="0.3" stroke-width="4" stroke="none"></path><path d="M722.72 784.38C719.84 804.96 715.81 826.61 709.22 844.31 709.22 844.31 709.22 844.39 709.14 844.39L679.35 850.56C679.26 850.56 679.18 850.48 679.26 850.4L722.56 784.3C722.64 784.3 722.8 784.3 722.72 784.38Z" fill="#000000" opacity="0.3" stroke-width="4" stroke="none"></path><path d="M854.99 715.41C863.55 730.55 873.02 736.32 873.92 736.81 873.92 736.81 874 736.89 873.92 736.89 872.85 738.87 868.98 746.11 865.2 750.56 865.11 750.64 865.11 750.56 865.03 750.56 864.37 748.33 856.23 720.18 854.83 715.41 854.83 715.33 854.99 715.33 854.99 715.41Z" fill="#a1634a" opacity="0.3" stroke-width="4" stroke="none"></path><path d="M1062 1085.39C1048.58 1080.61 1016.73 1077.16 1016.73 1077.16" stroke="#000000" stroke-width="4" stroke-linecap="round" stroke-linejoin="round" opacity="1" fill="none"></path><path d="M1073.93 1102.67C1060.51 1097.9 1041.58 1093.86 1017.88 1092.3" stroke="#000000" stroke-width="4" stroke-linecap="round" stroke-linejoin="round" opacity="1" fill="none"></path><path d="M899.27 711.13C898.94 707.92 896.97 705.12 894.01 703.8" stroke="#000000" stroke-width="4" stroke-linecap="round" stroke-linejoin="round" opacity="1" fill="none"></path><path d="M911.62 694.01L909.07 698.29" stroke="#000000" stroke-width="4" stroke-linecap="round" stroke-linejoin="round" opacity="1" fill="none"></path><path d="M873.92 736.89C861.41 728.66 854.99 715.16 854.99 715.16" stroke="#000000" stroke-width="4" stroke-linecap="round" stroke-linejoin="round" opacity="1" fill="none"></path><path d="M859.35 658.21L864.13 666.93" stroke="#000000" stroke-width="4" stroke-linecap="round" stroke-linejoin="round" opacity="1" fill="none"></path><path d="M736.38 1093.45C771.2 1097.4 834 1101.93 834 1101.93" stroke="#4d7fb1" stroke-width="4" stroke-linecap="round" stroke-linejoin="round" opacity="1" fill="none"></path><path d="M820.59 764.96L796.88 828.25" stroke="#000000" stroke-width="4" stroke-linecap="round" stroke-linejoin="round" opacity="1" fill="none"></path><path d="M842.07 963.82C884.7 1004.89 939.27 1060.04 949.48 1107.28 953.84 1127.36 952.61 1144.65 947.51 1158.89" stroke="#4d7fb1" stroke-width="4" stroke-linecap="round" stroke-linejoin="round" opacity="1" fill="none"></path><path d="M635.89 1155.02L639.51 1133.54" stroke="#000000" stroke-width="4" stroke-linecap="round" stroke-linejoin="round" opacity="1" fill="none"></path><path d="M620.17 1153.95L620.49 1132.8" stroke="#000000" stroke-width="4" stroke-linecap="round" stroke-linejoin="round" opacity="1" fill="none"></path><path d="M709.39 844.39C692.76 848.34 679.43 850.56 679.43 850.56" stroke="#000000" stroke-width="4" stroke-linecap="round" stroke-linejoin="round" opacity="1" fill="none"></path><path d="M905.19 863.87C895.73 868.59 883.88 867.02 883.88 867.02" stroke="#000000" stroke-width="4" stroke-linecap="round" stroke-linejoin="round" opacity="1" fill="none"></path><path d="M882.12 896.32C872.03 897.89 866.51 896.24 866.51 896.24" stroke="#000000" stroke-width="4" stroke-linecap="round" stroke-linejoin="round" opacity="1" fill="none"></path><path d="M895.62 880.41C885.45 883.65 875.16 882.08 875.16 882.08" stroke="#000000" stroke-width="4" stroke-linecap="round" stroke-linejoin="round" opacity="1" fill="none"></path><path d="M776.3 810.89L745.44 801.34" stroke="#000000" stroke-width="4" stroke-linecap="round" stroke-linejoin="round" opacity="1" fill="none"></path></g></svg>