<svg xmlns="http://www.w3.org/2000/svg" height="1200" width="1600" version="1.1" xmlns:xlink="http://www.w3.org/1999/xlink" xmlns:svgjs="http://svgjs.com/svgjs"><rect fill="none" width="1600" height="1200"></rect><g><path d="M411.12 511.55C480.5 462.98 653.02 487.56 752.16 437.36 851.92 386.87 877.69 261.9 941.22 215.43 1004.75 168.96 1105.13 200.68 1153.42 267.91 1202 335.75 1197.87 439.4 1177.63 521.16 1157.72 602 1121.7 660.94 1083.55 718.63 1045.7 776.95 1004.79 833.7 930.07 899.42 855.05 964.51 746.22 1038.56 654.3 1024.09 561.77 1009.91 486.44 907.82 431.74 794.84 376.73 682.78 342.04 560.74 411.12 511.55Z" fill="#e1f0ff" opacity="1" stroke-width="4" stroke="none"></path></g><g><path d="M1318.32 227.62C1299.68 227.62 1284.58 212.51 1284.58 193.88 1284.58 175.24 1299.68 160.14 1318.32 160.14 1336.95 160.14 1352.06 175.24 1352.06 193.88 1352.06 212.51 1336.95 227.62 1318.32 227.62Z" fill="#7e88cd" opacity="1" stroke-width="4" stroke="none"></path></g><g><path d="M1313.42 862.32L1355.28 852.78 1310.51 843.73 1327.44 809.81 1295.72 832.92 1276.55 796.32 1277.06 837.06 1234.17 835.2 1271.28 856.72 1238.42 887.8 1282.2 870.36 1288.6 917.46 1301.11 873.16 1334.89 897.54 1313.42 862.32Z" fill="#351DC2" opacity="1" stroke-width="4" stroke="none"></path></g><g><path d="M389.48 198.13L243.53 113.43 403.82 159.04 414.24 65.21 450.73 149.92 522.4 113.43 474.19 189.01 581.04 238.53 465.06 230.71 487.22 315.41 419.46 237.23 300.87 282.84 389.48 198.13Z" fill="#351DC2" opacity="1" stroke-width="4" stroke="none"></path></g><g><path d="M1115.53 673.73C1116.43 673.56 1117.51 673.13 1118.06 672.32 1145.77 638.39 1204.6 606.08 1241.96 597.42 1243.09 597.21 1243.9 596.59 1244.64 595.52 1245.14 594.49 1245.42 593.5 1245.21 592.37L1245.17 592.15C1244.52 589.94 1242.15 588.51 1239.9 588.94 1220 593.61 1195.17 604.35 1171.38 618.17 1149.73 630.88 1131.38 645.07 1117.9 659.05 1126.25 641.37 1132.8 619.12 1136.82 594.55 1141.32 567.55 1142.3 540.52 1139.7 520.46 1139.23 517.98 1137.27 516.25 1134.75 516.49 1134.52 516.53 1134.52 516.53 1134.3 516.58 1132.27 516.96 1130.76 518.88 1130.92 520.95L1130.96 521.17C1136.05 559.44 1127.06 625.8 1105.47 663.72 1104.46 665.78 1104.92 668.26 1107.02 669.5L1112.38 673.16C1113.19 673.71 1114.4 673.95 1115.53 673.73Z" fill="#211f23" opacity="1" stroke-width="4" stroke="none"></path><path d="M1229.45 601.64C1260.56 595.79 1290.14 575.52 1310.5 546.01 1347.35 492.38 1342.09 424.73 1298.92 395.02 1280.96 382.76 1258.2 378.4 1234.75 382.81 1203.63 388.67 1174.05 408.94 1153.69 438.45 1116.85 492.07 1122.1 559.73 1165.28 589.43 1183.23 601.7 1205.99 606.05 1229.45 601.64Z" fill="#351DC2" opacity="1" stroke-width="4" stroke="none"></path><path d="M1065.39 764.65C1067.87 764.18 1070.18 762.81 1071.64 760.67L1136.54 666.28C1138 664.14 1138.44 661.49 1138.2 658.96 1137.96 656.44 1136.36 654.17 1134.22 652.71L1118.1 641.5C1115.96 640.03 1113.27 639.37 1110.79 639.84 1108.31 640.3 1105.99 641.67 1104.53 643.82L1039.63 738.21C1038.17 740.35 1037.73 743 1037.97 745.52 1038.21 748.05 1039.81 750.31 1041.95 751.78L1058.07 762.99C1060.26 764.68 1062.68 765.16 1065.39 764.65Z" fill="#211f23" opacity="1" stroke-width="4" stroke="none"></path><path d="M1079.67 805.85C1088.47 804.2 1090.87 798.38 1091.34 797.12 1098.1 795.85 1102.5 793.16 1104.53 789.04 1106.92 784.39 1105.04 779.37 1104.56 778.06 1108.14 775.98 1110.2 773.26 1110.69 769.67 1111.86 762.21 1105.63 751.47 1092.07 737.68 1075.34 720.75 1028.14 680.83 1025.07 678.14 1025.23 675.31 1026.18 648.05 1026.8 625.28L1026.71 624.83 954.78 618.52 954.64 619.01C945.28 658.59 944.97 685.5 953.36 699.1 978.73 739.62 1044.99 785.3 1049.54 788.41 1049.49 789.35 1049.36 792.41 1051.44 795.99 1053.55 799.79 1058.4 804.49 1069.68 806.1 1073.01 806.41 1076.52 806.45 1079.67 805.85Z" fill="#faa378" opacity="1" stroke-width="4" stroke="none"></path><path d="M954.42 619.05L954.56 618.56 978.7 632.7C978.7 632.7 987.07 639.99 988.3 673.85 988.92 694.51 1025.01 675.35 1024.84 678.18 1028.14 680.83 1075.34 720.75 1091.84 737.73 1097.93 744.05 1102.46 749.5 1105.73 754.49 1105.73 754.49 1093.24 768.75 1061.4 770.77 1051.49 771.46 1045.85 772.52 1036.78 778.9 1015.32 762.86 971.75 728.56 953.05 698.69 944.78 685.77 945.32 658.82 954.42 619.05Z" fill="#4a2e20" opacity="0.3" stroke-width="4" stroke="none"></path><path d="M956.15 691.57C956.33 691.3 968.31 663.13 981.72 623.96L1026.67 628.34 1027.18 619.84C1027.27 611.65 1026.83 606.83 1026.76 601.48 1025.66 575.77 1022.35 538.33 1007.49 511.48 999.44 495.95 986.12 483.51 970.28 476.22L895.71 464.56C895.48 464.6 888.41 465.47 879.16 467.21 865.4 469.79 847.08 474.17 837.7 480.14 817.71 493.01 802.08 509.25 816.29 581.06L796.02 684.33 956.28 692.25 956.15 691.57V691.57Z" fill="#003fa3" opacity="1" stroke-width="4" stroke="none"></path><path d="M956.99 692.35C956.95 692.12 973.77 646.23 973.77 646.23 973.54 646.27 949.66 640.96 937.59 626.42 933.37 621.38 930.34 615.18 927.62 609.38 922.96 599.52 919.11 590.21 909.73 591.27L913.72 608.73 886.51 634.16 829.13 634.45 824.22 615.76C820.92 616.84 820.29 620.93 819.42 626.23 817.79 634.94 816.58 645.91 802.83 648.5L795.76 684.15 952.63 692.7 956.99 692.35Z" fill="#000000" opacity="0.3" stroke-width="4" stroke="none"></path><path d="M1097.97 752.92C1107.89 751.05 1109.48 745.85 1109.72 744.64 1114.2 742.39 1117.66 738.47 1118.85 733.58 1119.51 730.89 1119.26 728.36 1118.21 726.46 1127.32 720.31 1122.98 710.86 1121.92 708.95 1125.1 706.02 1126.69 700.82 1126.07 696.27 1125.35 692.43 1123.4 689.53 1120.13 688.28L1119.9 688.32 1119.68 688.36C1116.2 689.72 1112.68 690.85 1108.84 691.57 1092.83 694.58 1072.1 694.09 1074.29 690.36L1083.84 674.09C1077.55 672.94 1069.04 673.61 1058.91 674.34 1049.67 674.91 1040.22 675.52 1033.03 674.54L925.42 659.76 914.49 611.62 829.05 633.99 829.13 634.45C841.21 680.04 847.82 696.54 854.29 708.63 875.1 746.04 946.96 747 1038.89 744.18 1038.89 744.18 1066.69 752.96 1087.38 753.74 1091.34 753.7 1095.04 753.47 1097.97 752.92Z" fill="#faa378" opacity="1" stroke-width="4" stroke="none"></path><path d="M1109.72 744.64C1105.73 754.49 1092.92 753.4 1087.48 753.02 1066.79 752.24 1038.99 743.46 1038.99 743.46 1029.71 743.81 1017.51 744.7 1007.06 745.03" stroke="#4a2e20" stroke-width="4" stroke-linecap="round" stroke-linejoin="round" opacity="1" fill="none"></path><path d="M946.81 509.11C959.21 506.78 966.91 499.26 968.11 488.3L970.92 467.22C973.65 468.11 986.53 471.99 999.6 469.53 1005.24 468.47 1010.22 466.37 1014.34 463.49 1030.27 452.56 1024.17 415.18 1022.77 407.74 1021.2 399.4 1020.62 391.34 1019.85 383.54 1018.43 366.06 1017.21 350.88 1006.06 338.74 988.5 319.86 959.88 311.7 929.49 316.49 928.82 316.61 928.36 316.7 927.69 316.82 911.23 319.92 883.59 331.89 883.11 377.74 882.8 400.91 883.32 465.72 883.44 466.4 887.43 487.6 908 502.64 926.49 507.8 933.21 510.04 940.5 510.3 946.81 509.11Z" fill="#faa378" opacity="1" stroke-width="4" stroke="none"></path><path d="M913.25 453.56C916.63 452.92 922.6 451.87 921.64 450.27 917.61 442 892.61 420.78 907.74 404.4 909.65 402.17 912.23 400.98 915.39 400.39 928.69 397.89 951.2 405.61 951.16 405.22L951.13 405.22C951.02 405.36 960.61 401.22 959.35 380.91 958.86 378.79 973.04 384.17 978.23 383.2 991.76 380.65 992.66 361.71 993.36 363.08 1008.85 373.47 1016.03 375.62 1016.48 375.54L1019.17 376.2 1018.75 370.21C1017.48 358.54 1015.17 348.7 1006.1 338.97 988.54 320.09 959.92 311.93 929.53 316.71 928.86 316.84 928.41 316.92 927.73 317.05 911.27 320.15 883.64 332.11 883.15 377.97 882.92 394.12 883.23 430.49 883.27 450.56L883.31 450.78 883.58 450.97C884.07 451.11 897.69 456.48 913.25 453.56Z" fill="#231f20" opacity="1" stroke-width="4" stroke="none"></path><path d="M999.89 428.85C996.42 429.04 993.15 427.79 990.8 425.19" stroke="#4a2e20" stroke-width="4" stroke-linecap="round" stroke-linejoin="round" opacity="1" fill="none"></path><path d="M935.49 429.06L929.71 423.14" stroke="#4a2e20" stroke-width="4" stroke-linecap="round" stroke-linejoin="round" opacity="1" fill="none"></path><path d="M977.55 403.17C975.57 403.54 973.64 402.23 973.26 400.24 972.89 398.26 974.21 396.33 976.19 395.96 978.18 395.58 980.11 396.9 980.48 398.88 980.85 400.87 979.53 402.8 977.55 403.17Z" fill="#231f20" opacity="1" stroke-width="4" stroke="none"></path><path d="M1009.12 397.23C1007.14 397.61 1005.21 396.29 1004.83 394.3 1004.46 392.32 1005.78 390.39 1007.76 390.02 1009.75 389.64 1011.68 390.96 1012.05 392.95 1012.42 394.93 1011.1 396.86 1009.12 397.23Z" fill="#231f20" opacity="1" stroke-width="4" stroke="none"></path><path d="M970.92 467.22L956.3 462.74" stroke="#4a2e20" stroke-width="4" stroke-linecap="round" stroke-linejoin="round" opacity="1" fill="none"></path><path d="M998.16 403.5C999.2 406.57 999.63 408.83 996.6 410.1" stroke="#4a2e20" stroke-width="4" stroke-linecap="round" stroke-linejoin="round" opacity="1" fill="none"></path><path d="M829.13 634.45L816.25 580.83" stroke="#000000" stroke-width="4" stroke-linecap="round" stroke-linejoin="round" opacity="1" fill="none"></path><path d="M980.33 627.72L990.23 595.97" stroke="#000000" stroke-width="4" stroke-linecap="round" stroke-linejoin="round" opacity="1" fill="none"></path><path d="M915.36 614.96L908.05 581.08" stroke="#000000" stroke-width="4" stroke-linecap="round" stroke-linejoin="round" opacity="1" fill="none"></path><path d="M1121.2 708.86C1116.35 711.64 1111.33 713.51 1105.92 714.53" stroke="#4a2e20" stroke-width="4" stroke-linecap="round" stroke-linejoin="round" opacity="1" fill="none"></path><path d="M1117.56 726.75C1113.4 729.47 1104.38 731.16 1104.38 731.16" stroke="#4a2e20" stroke-width="4" stroke-linecap="round" stroke-linejoin="round" opacity="1" fill="none"></path><path d="M1103.84 777.96C1097.8 779.33 1091.54 779.57 1085.38 779.1" stroke="#4a2e20" stroke-width="4" stroke-linecap="round" stroke-linejoin="round" opacity="1" fill="none"></path><path d="M1091.03 796.71C1086.43 797.11 1081.8 797.28 1077.07 797" stroke="#4a2e20" stroke-width="4" stroke-linecap="round" stroke-linejoin="round" opacity="1" fill="none"></path><path d="M1024.63 673.32L966.4 665.36" stroke="#4a2e20" stroke-width="4" stroke-linecap="round" stroke-linejoin="round" opacity="1" fill="none"></path><path d="M925.19 659.8L908.85 672.22" stroke="#4a2e20" stroke-width="4" stroke-linecap="round" stroke-linejoin="round" opacity="1" fill="none"></path><path d="M970.92 467.22L949.11 461.75 967.16 493.15 970.92 467.22Z" fill="#4a2e20" opacity="0.3" stroke-width="4" stroke="none"></path></g><g><path d="M332.98 653.68C375.7 653.68 410.31 619.06 410.31 576.35 410.31 533.65 375.7 499.02 332.98 499.02 290.27 499.02 255.65 533.65 255.65 576.35 255.65 619.06 290.27 653.68 332.98 653.68Z" fill="#7e88cd" opacity="1" stroke-width="4" stroke="none"></path><path d="M355.78 503.32C354.19 527.56 343.67 550.2 324.53 565.99 305.4 581.77 281.16 587.83 257.09 584.96" stroke="#000000" stroke-width="4" stroke-linecap="round" stroke-linejoin="round" opacity="1" fill="none"></path><path d="M375.87 513.37C384.01 549.72 377.15 583.21 354.19 602.18 331.39 620.99 297.9 621.63 264.1 607.44" stroke="#000000" stroke-width="4" stroke-linecap="round" stroke-linejoin="round" opacity="1" fill="none"></path></g><g><path d="M938.17 1081.6L752.6 1066.06 808.74 1011.52 938.17 1081.6Z" fill="#003fa3" opacity="1" stroke-width="4" stroke="none"></path></g><g><path d="M727.77 754.58L718.42 710.21C718.42 709.42 725.55 615.92 721.9 599.76 716.2 575.35 699.4 590.56 673.89 590.25 673.25 590.25 674.68 590.25 673.89 590.25 635.85 590.25 607.01 577.57 599.88 592.47 598.77 595.16 597.34 597.06 596.55 599.91 594.01 608.79 593.22 618.77 592.43 632.24 591.32 632.72 585.46 635.57 582.6 638.74 581.5 639.69 581.02 640.96 580.86 642.38 580.86 647.46 589.1 653.95 590.21 654.9 588.31 690.56 593.38 700.54 604 707.52 608.75 710.21 613.98 711.95 619.37 712.59 620 712.59 620.64 712.75 621.27 712.75 629.83 712.75 641.87 708.31 644.25 707.52 644.73 714.49 644.25 721.62 642.98 728.59 641.56 737.31 638.07 747.14 634.27 757.44 630.94 766.63 627.45 776.14 624.6 786.75V787.07L654.87 802.6 727.77 754.58Z" fill="#c65a42" opacity="1" stroke-width="4" stroke="none"></path><path d="M644.73 719.88C645.36 719.24 658.2 704.66 659.46 699.75 659.62 699.28 659.15 698.96 658.83 699.28 652.33 703.08 645.84 706.09 644.57 706.73 644.41 706.73 644.25 707.04 644.25 707.2 644.41 711.32 644.57 714.49 644.25 718.77L644.09 720.35 644.73 719.88Z" fill="#000000" opacity="0.3" stroke-width="4" stroke="none"></path><path d="M778 837.62C831.41 837.62 862.31 799.12 865.32 760.92 868.02 727.33 849 684.7 787.35 674.4 786.72 674.24 786.24 673.76 786.09 673.13 781.81 633.03 754.23 627.01 737.91 627.01 734.9 627.01 731.89 627.17 729.03 627.65 728.08 627.81 727.29 627.17 727.29 626.22 727.29 612.59 724.76 589.77 710.02 574.72 700.67 565.21 687.99 560.3 671.98 559.98 671.35 559.98 670.87 559.98 670.24 559.98 631.89 559.98 606.85 576.14 599.72 591.04 598.45 593.89 597.5 596.74 596.71 599.6L596.55 599.91 597.03 600.07C600.2 601.18 603.52 601.66 606.85 601.5 614.77 601.18 622.7 599.44 629.99 596.43 631.1 595.95 632.21 597.06 631.89 598.17 629.83 604.98 629.83 609.9 631.89 612.91 633.47 615.29 636.49 616.55 640.61 616.55 642.67 616.55 644.89 616.24 646.95 615.76 648.05 615.44 649.01 616.39 648.69 617.5 647.1 623.68 644.41 637.16 651.22 644.76L651.38 644.92 651.54 644.76C651.7 644.6 665.33 635.57 677.85 635.57 683.87 635.25 689.73 638.11 693.22 643.02 697.18 648.41 698.77 655.22 697.34 661.72 693.85 678.2 672.62 690.88 672.62 690.88 672.62 690.88 671.03 751.73 692.11 787.07 708.91 815.12 733.16 832.08 762.16 836.04 767.39 837.15 772.62 837.62 778 837.62Z" fill="#231f20" opacity="1" stroke-width="4" stroke="none"></path><path d="M644.73 707.36C649.01 705.46 652.97 702.76 656.45 699.59" stroke="#000000" stroke-width="4" stroke-linecap="round" stroke-linejoin="round" opacity="1" fill="none"></path><path d="M605.43 664.57C608.91 666.79 614.46 663.94 616.04 659.5" stroke="#000000" stroke-width="4" stroke-linecap="round" stroke-linejoin="round" opacity="1" fill="none"></path><path d="M662.95 667.11L673.89 660.93" stroke="#000000" stroke-width="4" stroke-linecap="round" stroke-linejoin="round" opacity="1" fill="none"></path><path d="M609.39 636.36C607.47 636.36 605.9 634.81 605.9 632.88 605.9 630.96 607.47 629.39 609.39 629.39 611.32 629.39 612.87 630.96 612.87 632.88 612.87 634.81 611.32 636.36 609.39 636.36Z" fill="#231f20" opacity="1" stroke-width="4" stroke="none"></path><path d="M789.27 937.62L788.8 936.51C782.93 922.73 778.81 906.56 775.64 884.37L770.25 877.56 647.12 910.21 651.72 923.04C662.33 940.63 671.05 957.43 678.97 976.45L680.08 978.35 789.27 937.62Z" fill="#c65a42" opacity="1" stroke-width="4" stroke="none"></path><path d="M775.63 884.37V884.06C774.04 873.6 772.93 863.93 771.82 853.95L771.66 852.36 650.59 811 614.62 842.22V842.38C617.94 872.01 626.34 884.53 639.18 903.71 642.82 909.25 647.1 915.44 651.54 922.88L651.7 923.04 775.63 884.37Z" fill="#351DC2" opacity="1" stroke-width="4" stroke="none"></path><path d="M284.53 915.44C287.7 915.44 290.87 914.96 293.88 914.01 304.34 910.52 314.64 902.92 322.25 897.37 327 893.88 330.81 891.19 332.55 890.87 353.15 887.23 399.74 884.22 437.3 881.68 465.51 879.78 489.75 878.19 496.89 876.93 552.35 866.47 648.39 833.66 653.46 831.92 669.78 850.62 693.87 860.13 725.09 860.13 740.78 860.13 755.99 858.7 771.05 854.42L771.84 853.95 771.2 848.72C766.93 809.26 762.96 771.86 743.79 749.2 732.06 735.41 715.26 721.15 678.81 721.15 668.2 721.3 657.74 722.26 647.28 724.16 632.06 726.85 603.38 738.9 573.11 751.57 541.26 764.89 505.29 779.94 479.77 786.28 470.1 788.66 448.39 792.3 423.04 796.42 379.46 803.55 325.42 812.59 302.76 820.35 295.15 823.05 257.12 836.99 249.67 854.26 248.08 857.91 248.08 861.87 249.67 865.52 248.4 866.47 242.38 871.22 241.9 877.88 241.58 881.84 243.17 885.48 246.66 889.13 246.66 890.24 247.61 898.64 259.18 901.65 259.65 902.92 263.3 910.84 274.55 911 275.97 914.64 280.73 915.44 284.53 915.44Z" fill="#c65a42" opacity="1" stroke-width="4" stroke="none"></path><path d="M626.2 881.52C633.65 864.57 647.91 854.42 659.32 846.5 670.26 838.73 679.13 833.19 675.96 824.47L614.95 844.6C616.69 858.86 620.02 870.75 625.57 881.52L625.88 882.31 626.2 881.52Z" fill="#000000" opacity="0.3" stroke-width="4" stroke="none"></path><path d="M338.08 889.92C345.37 888.81 353.13 888.18 365.65 887.07L369.77 886.59 351.55 808.94V808.78L348.86 809.26C337.45 811.48 331.74 812.74 323.82 814.65L321.12 815.28V815.44L337.76 889.92H338.08Z" fill="#003fa3" opacity="1" stroke-width="4" stroke="none"></path><path d="M614.95 844.6L675.96 824.47" stroke="#000000" stroke-width="4" stroke-linecap="round" stroke-linejoin="round" opacity="1" fill="none"></path><path d="M785.93 674.55C788.78 690.4 782.44 707.36 782.44 707.36" stroke="#231f20" stroke-width="4" stroke-linecap="round" stroke-linejoin="round" opacity="1" fill="none"></path><path d="M726.97 628.44C726.66 636.05 725.07 648.57 725.07 648.57" stroke="#231f20" stroke-width="4" stroke-linecap="round" stroke-linejoin="round" opacity="1" fill="none"></path><path d="M249.81 865.52C256.78 860.44 264.71 855.85 272.15 851.73" stroke="#000000" stroke-width="4" stroke-linecap="round" stroke-linejoin="round" opacity="1" fill="none"></path><path d="M247.27 888.97C253.45 887.39 262.8 881.2 262.8 881.2" stroke="#000000" stroke-width="4" stroke-linecap="round" stroke-linejoin="round" opacity="1" fill="none"></path><path d="M259.63 901.33C265.82 899.75 275.17 893.57 275.17 893.57" stroke="#000000" stroke-width="4" stroke-linecap="round" stroke-linejoin="round" opacity="1" fill="none"></path><path d="M275.01 910.68C279.29 908.94 283.56 906.88 287.53 904.34" stroke="#000000" stroke-width="4" stroke-linecap="round" stroke-linejoin="round" opacity="1" fill="none"></path></g></svg>