<?xml version="1.0" encoding="UTF-8" standalone="no"?>
<!-- Created with Vectornator (http://vectornator.io/) -->

<svg
   height="100%"
   stroke-miterlimit="10"
   style="fill-rule:nonzero;clip-rule:evenodd;stroke-linecap:round;stroke-linejoin:round;"
   version="1.1"
   viewBox="0 0 442.346 101.606"
   width="100%"
   xml:space="preserve"
   id="svg87"
   sodipodi:docname="xmas_logo.svg"
   inkscape:version="1.3.2 (091e20e, 2023-11-25)"
   xmlns:inkscape="http://www.inkscape.org/namespaces/inkscape"
   xmlns:sodipodi="http://sodipodi.sourceforge.net/DTD/sodipodi-0.dtd"
   xmlns="http://www.w3.org/2000/svg"
   xmlns:svg="http://www.w3.org/2000/svg"
   xmlns:vectornator="http://vectornator.io"><sodipodi:namedview
   id="namedview89"
   pagecolor="#ffffff"
   bordercolor="#000000"
   borderopacity="0.25"
   inkscape:showpageshadow="2"
   inkscape:pageopacity="0.0"
   inkscape:pagecheckerboard="0"
   inkscape:deskcolor="#d1d1d1"
   showgrid="false"
   inkscape:zoom="1.1565963"
   inkscape:cx="271.91856"
   inkscape:cy="158.22288"
   inkscape:window-width="1440"
   inkscape:window-height="1027"
   inkscape:window-x="318"
   inkscape:window-y="25"
   inkscape:window-maximized="0"
   inkscape:current-layer="Livello-1" />
<defs
   id="defs8">
<clipPath
   id="TextBounds">
<rect
   height="87.885"
   width="289.752"
   x="59.216"
   y="-142.723"
   id="rect2" />
</clipPath>
<clipPath
   id="TextBounds_2">
<rect
   height="87.885"
   width="289.752"
   x="68.4258"
   y="312.767"
   id="rect5" />
</clipPath>
</defs>
<clipPath
   id="ArtboardFrame">
<rect
   height="101.606"
   width="442.346"
   x="0"
   y="0"
   id="rect10" />
</clipPath>
<g
   clip-path="url(#ArtboardFrame)"
   id="layer1"
   vectornator:layerName="layer1">
<g
   fill="#ffffff"
   opacity="1"
   stroke="none"
   id="g25">
<path
   clip-path="url(#TextBounds)"
   d="M92.6184-112.432C96.0768-112.432 98.7668-112.912 100.688-113.873C103.707-115.382 105.217-118.1 105.217-122.025C105.217-125.977 103.611-128.64 100.4-130.012C98.5883-130.781 95.8984-131.165 92.3302-131.165L77.714-131.165L77.714-112.432L92.6184-112.432ZM95.3769-84.5168C100.4-84.5168 103.982-85.9715 106.123-88.881C107.468-90.7201 108.14-92.9433 108.14-95.5509C108.14-99.9426 106.178-102.934 102.253-104.526C100.167-105.377 97.4081-105.803 93.9771-105.803L77.714-105.803L77.714-84.5168L95.3769-84.5168ZM69.6855-137.999L95.6651-137.999C102.747-137.999 107.783-135.886 110.775-131.659C112.532-129.161 113.41-126.279 113.41-123.013C113.41-119.197 112.326-116.068 110.158-113.626C109.032-112.335 107.413-111.155 105.299-110.085C108.401-108.904 110.72-107.573 112.258-106.091C114.975-103.456 116.334-99.8191 116.334-95.1804C116.334-91.2827 115.112-87.7557 112.669-84.5991C109.019-79.878 103.213-77.5175 95.2534-77.5175L69.6855-77.5175L69.6855-137.999Z"
   id="path13" />
<path
   clip-path="url(#TextBounds)"
   d="M130.826-89.2516C130.826-87.1106 131.608-85.4226 133.173-84.1874C134.738-82.9522 136.59-82.3347 138.731-82.3347C141.339-82.3347 143.864-82.9385 146.307-84.1462C150.424-86.1499 152.483-89.43 152.483-93.9864L152.483-99.9563C151.577-99.3799 150.41-98.8996 148.983-98.5153C147.556-98.131 146.156-97.8566 144.784-97.6919L140.296-97.1155C137.606-96.7586 135.588-96.196 134.243-95.4274C131.965-94.1373 130.826-92.0787 130.826-89.2516ZM148.777-104.238C150.479-104.458 151.618-105.171 152.195-106.379C152.524-107.038 152.689-107.985 152.689-109.22C152.689-111.745 151.79-113.577 149.992-114.717C148.194-115.856 145.621-116.425 142.272-116.425C138.402-116.425 135.657-115.382 134.038-113.296C133.132-112.143 132.542-110.428 132.267-108.15L125.35-108.15C125.487-113.584 127.251-117.365 130.641-119.493C134.031-121.62 137.963-122.683 142.437-122.683C147.624-122.683 151.838-121.695 155.077-119.719C158.288-117.743 159.894-114.669 159.894-110.496L159.894-85.0932C159.894-84.3246 160.052-83.7071 160.367-83.2404C160.683-82.7738 161.348-82.5405 162.364-82.5405C162.693-82.5405 163.064-82.5611 163.476-82.6023C163.887-82.6434 164.327-82.7052 164.793-82.7875L164.793-77.3116C163.64-76.9823 162.762-76.7764 162.158-76.6941C161.554-76.6117 160.731-76.5705 159.688-76.5705C157.135-76.5705 155.282-77.4763 154.13-79.2879C153.526-80.2486 153.1-81.6073 152.853-83.364C151.344-81.3877 149.175-79.6722 146.348-78.2174C143.521-76.7627 140.406-76.0353 137.002-76.0353C132.912-76.0353 129.57-77.2773 126.977-79.7614C124.383-82.2454 123.086-85.3539 123.086-89.0869C123.086-93.1767 124.362-96.3469 126.915-98.5977C129.467-100.848 132.816-102.235 136.961-102.756L148.777-104.238Z"
   id="path15" />
<path
   clip-path="url(#TextBounds)"
   d="M171.875-137.999L178.998-137.999L178.998-102.88L198.019-121.613L207.489-121.613L190.608-105.103L208.436-77.5175L198.966-77.5175L185.215-99.7505L178.998-94.0687L178.998-77.5175L171.875-77.5175L171.875-137.999Z"
   id="path17" />
<path
   clip-path="url(#TextBounds)"
   d="M214.2-121.613L221.24-121.613L221.24-115.355C223.326-117.935 225.536-119.788 227.869-120.913C230.202-122.038 232.796-122.601 235.651-122.601C241.909-122.601 246.136-120.419 248.332-116.055C249.539-113.667 250.143-110.249 250.143-105.803L250.143-77.5175L242.609-77.5175L242.609-105.309C242.609-107.999 242.211-110.167 241.415-111.814C240.097-114.559 237.709-115.931 234.251-115.931C232.494-115.931 231.053-115.753 229.928-115.396C227.896-114.792 226.112-113.584 224.575-111.773C223.34-110.318 222.537-108.815 222.167-107.264C221.796-105.714 221.611-103.497 221.611-100.615L221.611-77.5175L214.2-77.5175L214.2-121.613Z"
   id="path19" />
<path
   clip-path="url(#TextBounds)"
   d="M279.458-122.601C282.587-122.601 285.62-121.867 288.557-120.398C291.494-118.93 293.731-117.029 295.268-114.696C296.75-112.473 297.738-109.879 298.232-106.914C298.671-104.883 298.891-101.644 298.891-97.1978L266.571-97.1978C266.708-92.7238 267.765-89.1349 269.741-86.4313C271.717-83.7276 274.778-82.3758 278.922-82.3758C282.793-82.3758 285.881-83.6522 288.186-86.2048C289.504-87.687 290.437-89.4025 290.986-91.3514L298.273-91.3514C298.081-89.7319 297.443-87.9272 296.359-85.9372C295.275-83.9472 294.06-82.3209 292.715-81.0583C290.464-78.8625 287.678-77.3803 284.357-76.6117C282.573-76.1726 280.556-75.953 278.305-75.953C272.815-75.953 268.163-77.9498 264.348-81.9435C260.532-85.9372 258.625-91.5298 258.625-98.7212C258.625-105.803 260.546-111.553 264.389-115.972C268.231-120.391 273.254-122.601 279.458-122.601ZM291.274-103.085C290.972-106.297 290.272-108.863 289.174-110.785C287.143-114.353 283.753-116.137 279.005-116.137C275.601-116.137 272.747-114.909 270.441-112.452C268.135-109.995 266.914-106.873 266.777-103.085L291.274-103.085Z"
   id="path21" />
<path
   clip-path="url(#TextBounds)"
   d="M335.534-121.613L343.727-121.613C342.684-118.786 340.365-112.335 336.769-102.262C334.079-94.6863 331.829-88.5105 330.017-83.7345C325.735-72.4808 322.716-65.6188 320.959-63.1484C319.203-60.6781 316.183-59.4429 311.901-59.4429C310.858-59.4429 310.055-59.4841 309.493-59.5664C308.93-59.6488 308.237-59.7998 307.414-60.0193L307.414-66.7716C308.704-66.4147 309.637-66.1952 310.213-66.1128C310.79-66.0305 311.298-65.9893 311.737-65.9893C313.109-65.9893 314.118-66.2157 314.763-66.6686C315.408-67.1215 315.95-67.6774 316.389-68.3361C316.526-68.5557 317.02-69.6811 317.871-71.7122C318.722-73.7434 319.34-75.253 319.724-76.2412L303.42-121.613L311.819-121.613L323.635-85.7108L335.534-121.613Z"
   id="path23" />
</g>
<path
   d="M23.0193-99.0522C23.0193-105.378 28.1471-110.505 34.4726-110.505C40.798-110.505 45.9258-105.378 45.9258-99.0522C45.9258-92.7268 40.798-87.599 34.4726-87.599C28.1471-87.599 23.0193-92.7268 23.0193-99.0522Z"
   fill="#ffffff"
   fill-rule="nonzero"
   opacity="1"
   stroke="none"
   id="path27" />
<path
   d="M-0.208707-136.468L-0.208707-114.557C3.82509-110.404 6.08257-104.843 6.08504-99.053C6.07571-93.2723 3.81874-87.7218-0.208709-83.575L-0.208709-61.6362C9.24669-61.6362 17.499-68.7127 22.108-79.3718C17.2791-84.7909 14.6083-91.7945 14.6027-99.053C14.6087-106.311 17.2795-113.314 22.108-118.733C17.499-129.392 9.24669-136.468-0.208707-136.468Z"
   fill="#ffffff"
   fill-rule="nonzero"
   opacity="1"
   stroke="none"
   id="path29" />
<g
   opacity="1"
   id="g43">
<path
   d="M129.516 57.7596C129.516 61.1324 128.814 64.0485 127.408 66.5079C126.003 68.897 124.07 70.8644 121.611 72.4103C119.152 73.9562 116.271 75.1156 112.968 75.8885C109.736 76.5912 106.293 76.9425 102.639 76.9425L65.8541 76.9425L65.8541 2.10802L109.279 2.10802C111.879 2.10802 114.233 2.67015 116.341 3.79443C118.449 4.9187 120.241 6.39431 121.717 8.22126C123.192 9.97794 124.316 12.0157 125.089 14.3345C125.933 16.5831 126.354 18.9019 126.354 21.291C126.354 24.8043 125.441 28.1771 123.614 31.4094C121.857 34.5715 119.187 36.9605 115.603 38.5767C119.89 39.8415 123.262 42.0549 125.722 45.2169C128.251 48.3087 129.516 52.4896 129.516 57.7596ZM108.647 53.5436C108.647 51.7167 108.155 50.2059 107.171 49.0114C106.187 47.7466 104.923 47.1142 103.377 47.1142L86.4073 47.1142L86.4073 59.6568L102.639 59.6568C104.325 59.6568 105.731 59.1298 106.855 58.0758C108.05 57.0218 108.647 55.5111 108.647 53.5436ZM86.4073 19.6045L86.4073 31.0932L100.426 31.0932C101.831 31.0932 103.096 30.7067 104.22 29.9338C105.415 29.1609 106.012 27.615 106.012 25.2962C106.012 23.2584 105.52 21.818 104.536 20.9747C103.552 20.0613 102.393 19.6045 101.058 19.6045L86.4073 19.6045Z"
   fill="#351DC2"
   fill-rule="nonzero"
   opacity="1"
   stroke="none"
   id="path31"
   style="fill:#351dc2;fill-opacity:1" />
<path
   d="M153.548 77.9966C150.807 77.9966 148.242 77.5398 145.853 76.6263C143.464 75.7129 141.391 74.4832 139.635 72.9373C137.948 71.3212 136.613 69.424 135.629 67.2457C134.646 65.0674 134.154 62.7134 134.154 60.1838C134.154 57.3731 134.751 54.8084 135.946 52.4896C137.14 50.1708 138.792 48.1681 140.9 46.4817C143.008 44.7953 145.502 43.4954 148.383 42.5819C151.334 41.6684 154.566 41.2117 158.08 41.2117C162.577 41.2117 166.301 41.9144 169.252 43.3197L169.252 41.6333C169.252 39.0334 168.479 37.1011 166.934 35.8363C165.458 34.5714 163.034 33.939 159.661 33.939C156.499 33.939 153.583 34.466 150.913 35.5201C148.242 36.5038 145.432 37.9794 142.481 39.9469L136.684 27.5096C143.991 22.8017 152.318 20.4477 161.663 20.4477C170.517 20.4477 177.333 22.4152 182.111 26.3502C186.889 30.2851 189.278 36.1876 189.278 44.0575L189.278 54.8084C189.278 56.7056 189.56 58.0407 190.122 58.8136C190.684 59.5163 191.668 59.9379 193.073 60.0784L193.073 76.9426C191.457 77.2939 189.911 77.5398 188.435 77.6804C187.03 77.8912 185.765 77.9966 184.641 77.9966C181.057 77.9966 178.317 77.3642 176.42 76.0994C174.593 74.7643 173.398 72.8319 172.836 70.3023L172.414 68.2997C169.955 71.4617 167.109 73.8859 163.877 75.5723C160.645 77.1885 157.202 77.9966 153.548 77.9966ZM159.555 63.6621C160.75 63.6621 161.98 63.4864 163.244 63.135C164.509 62.7134 165.634 62.1864 166.617 61.554C167.39 60.9919 168.023 60.3946 168.515 59.7622C169.006 59.0596 169.252 58.3569 169.252 57.6542L169.252 53.5436C168.058 53.122 166.758 52.7707 165.353 52.4896C163.947 52.2085 162.682 52.068 161.558 52.068C159.099 52.068 157.061 52.6653 155.445 53.8598C153.829 55.0543 153.021 56.5651 153.021 58.392C153.021 59.9379 153.618 61.2027 154.812 62.1865C156.077 63.1702 157.658 63.6621 159.555 63.6621Z"
   fill="#351DC2"
   fill-rule="nonzero"
   opacity="1"
   stroke="none"
   id="path33"
   style="fill:#351dc2;fill-opacity:1" />
<path
   d="M236.92 76.9426L224.377 56.7056L220.372 61.1324L220.372 76.9426L200.346 76.9426L200.346 0L220.372 0L220.372 42.0549L235.128 21.5018L256.208 21.5018L237.131 45.7439L258.105 76.9426L236.92 76.9426Z"
   fill="#351DC2"
   fill-rule="nonzero"
   opacity="1"
   stroke="none"
   id="path35"
   style="fill:#351dc2;fill-opacity:1" />
<path
   d="M317.446 76.9426L297.42 76.9426L297.42 45.7439C297.42 43.0035 296.787 41.036 295.523 39.8415C294.328 38.5767 292.923 37.9443 291.307 37.9443C289.62 37.9443 287.828 38.6821 285.931 40.1577C284.034 41.6333 282.629 43.5305 281.715 45.8493L281.715 76.9426L261.689 76.9426L261.689 21.5018L279.713 21.5018L279.713 29.723C281.68 26.7015 284.42 24.4178 287.934 22.872C291.517 21.2558 295.733 20.4477 300.582 20.4477C304.376 20.4477 307.363 21.1504 309.541 22.5558C311.789 23.8908 313.476 25.5772 314.6 27.615C315.795 29.6527 316.568 31.831 316.919 34.1498C317.27 36.4687 317.446 38.5767 317.446 40.4739L317.446 76.9426Z"
   fill="#351DC2"
   fill-rule="nonzero"
   opacity="1"
   stroke="none"
   id="path37"
   style="fill:#351dc2;fill-opacity:1" />
<path
   d="M354.442 77.9966C349.593 77.9966 345.272 77.2588 341.477 75.7831C337.683 74.2373 334.486 72.1644 331.886 69.5645C329.356 66.9646 327.424 63.9783 326.089 60.6054C324.754 57.2326 324.086 53.6841 324.086 49.96C324.086 45.9547 324.719 42.1603 325.983 38.5767C327.319 34.993 329.251 31.8662 331.78 29.196C334.38 26.5259 337.542 24.4178 341.267 22.872C345.061 21.2558 349.453 20.4477 354.442 20.4477C359.36 20.4477 363.717 21.2558 367.511 22.872C371.306 24.4178 374.468 26.5259 376.997 29.196C379.597 31.7959 381.53 34.8525 382.794 38.3659C384.13 41.809 384.797 45.4277 384.797 49.2221C384.797 50.2762 384.727 51.3653 384.586 52.4896C384.516 53.5436 384.411 54.4922 384.27 55.3354L345.377 55.3354C345.588 58.2866 346.677 60.4298 348.645 61.7648C350.612 63.0296 352.755 63.6621 355.074 63.6621C357.252 63.6621 359.29 63.1702 361.187 62.1864C363.155 61.2027 364.455 59.8325 365.087 58.0758L382.057 62.9242C379.808 67.3511 376.33 70.9698 371.622 73.7805C366.984 76.5912 361.258 77.9966 354.442 77.9966ZM363.295 43.3197C362.944 40.6496 361.96 38.5415 360.344 36.9957C358.728 35.4498 356.655 34.6768 354.125 34.6768C351.596 34.6768 349.523 35.4498 347.907 36.9957C346.291 38.5415 345.307 40.6496 344.956 43.3197L363.295 43.3197Z"
   fill="#351DC2"
   fill-rule="nonzero"
   opacity="1"
   stroke="none"
   id="path39"
   style="fill:#351dc2;fill-opacity:1" />
<path
   d="M388.908 82.5288C392.14 83.7233 394.88 84.3206 397.129 84.3206C401.415 84.3206 403.769 81.8613 404.191 76.9425L384.059 21.5017L404.612 21.5017L415.153 59.973L423.69 21.5017L442.346 21.5017L423.585 83.5828C422.741 86.3232 421.547 88.7826 420.001 90.9608C418.455 93.2094 416.593 95.1066 414.415 96.6525C412.307 98.2686 409.953 99.4983 407.353 100.342C404.753 101.185 402.048 101.606 399.237 101.606C395.653 101.606 392.21 100.939 388.908 99.6037L388.908 82.5288Z"
   fill="#351DC2"
   fill-rule="nonzero"
   opacity="1"
   stroke="none"
   id="path41"
   style="fill:#351dc2;fill-opacity:1" />
</g>
<path
   d="M23.2281 38.3978C23.2281 32.0724 28.3558 26.9446 34.6813 26.9446C41.0067 26.9446 46.1345 32.0724 46.1345 38.3978C46.1345 44.7232 41.0067 49.851 34.6813 49.851C28.3558 49.851 23.2281 44.7232 23.2281 38.3978Z"
   fill="#351DC2"
   fill-rule="nonzero"
   opacity="1"
   stroke="none"
   id="path45"
   style="fill:#351dc2;fill-opacity:1" />
<path
   d="M0 0.981755L0 22.8927C4.0338 27.0461 6.29128 32.6073 6.29376 38.3971C6.28443 44.1778 4.02745 49.7283-2.39397e-06 53.8751L-2.39397e-06 75.8139C9.45541 75.8139 17.7077 68.7373 22.3168 58.0782C17.4878 52.6592 14.817 45.6555 14.8114 38.3971C14.8174 31.1392 17.4882 24.1361 22.3168 18.7174C17.7077 8.05826 9.45541 0.981753 0 0.981755Z"
   fill="#351DC2"
   fill-rule="nonzero"
   opacity="1"
   stroke="none"
   id="path47"
   style="fill:#351dc2;fill-opacity:1" />
<g
   fill="#000000"
   opacity="1"
   stroke="none"
   id="g61">
<path
   clip-path="url(#TextBounds_2)"
   d="M101.828 343.058C105.287 343.058 107.977 342.578 109.898 341.617C112.917 340.108 114.427 337.39 114.427 333.465C114.427 329.513 112.821 326.85 109.61 325.478C107.798 324.709 105.108 324.325 101.54 324.325L86.9239 324.325L86.9239 343.058L101.828 343.058ZM104.587 370.973C109.61 370.973 113.192 369.518 115.333 366.609C116.678 364.77 117.35 362.546 117.35 359.939C117.35 355.547 115.388 352.555 111.463 350.963C109.376 350.112 106.618 349.687 103.187 349.687L86.9239 349.687L86.9239 370.973L104.587 370.973ZM78.8953 317.49L104.875 317.49C111.957 317.49 116.993 319.604 119.985 323.831C121.742 326.329 122.62 329.211 122.62 332.477C122.62 336.292 121.536 339.421 119.368 341.864C118.242 343.154 116.623 344.335 114.509 345.405C117.611 346.585 119.93 347.917 121.467 349.399C124.185 352.034 125.543 355.671 125.543 360.309C125.543 364.207 124.322 367.734 121.879 370.891C118.228 375.612 112.423 377.972 104.463 377.972L78.8953 377.972L78.8953 317.49Z"
   id="path49" />
<path
   clip-path="url(#TextBounds_2)"
   d="M140.036 366.238C140.036 368.379 140.818 370.067 142.383 371.302C143.947 372.538 145.8 373.155 147.941 373.155C150.549 373.155 153.074 372.551 155.517 371.344C159.634 369.34 161.693 366.06 161.693 361.503L161.693 355.533C160.787 356.11 159.62 356.59 158.193 356.974C156.766 357.359 155.366 357.633 153.993 357.798L149.506 358.374C146.816 358.731 144.798 359.294 143.453 360.062C141.175 361.352 140.036 363.411 140.036 366.238ZM157.987 351.252C159.689 351.032 160.828 350.318 161.404 349.111C161.734 348.452 161.898 347.505 161.898 346.27C161.898 343.744 160.999 341.912 159.202 340.773C157.404 339.634 154.831 339.065 151.482 339.065C147.612 339.065 144.867 340.108 143.247 342.194C142.342 343.346 141.752 345.062 141.477 347.34L134.56 347.34C134.697 341.905 136.461 338.124 139.851 335.997C143.241 333.87 147.173 332.806 151.647 332.806C156.834 332.806 161.048 333.795 164.286 335.771C167.498 337.747 169.104 340.821 169.104 344.993L169.104 370.397C169.104 371.165 169.261 371.783 169.577 372.249C169.893 372.716 170.558 372.949 171.574 372.949C171.903 372.949 172.274 372.929 172.686 372.888C173.097 372.846 173.536 372.785 174.003 372.702L174.003 378.178C172.85 378.508 171.972 378.713 171.368 378.796C170.764 378.878 169.941 378.919 168.898 378.919C166.345 378.919 164.492 378.013 163.339 376.202C162.736 375.241 162.31 373.882 162.063 372.126C160.553 374.102 158.385 375.818 155.558 377.272C152.731 378.727 149.615 379.454 146.212 379.454C142.122 379.454 138.78 378.212 136.186 375.728C133.593 373.244 132.296 370.136 132.296 366.403C132.296 362.313 133.572 359.143 136.125 356.892C138.677 354.641 142.026 353.255 146.171 352.734L157.987 351.252Z"
   id="path51" />
<path
   clip-path="url(#TextBounds_2)"
   d="M181.085 317.49L188.207 317.49L188.207 352.61L207.229 333.877L216.699 333.877L199.818 350.387L217.646 377.972L208.176 377.972L194.424 355.739L188.207 361.421L188.207 377.972L181.085 377.972L181.085 317.49Z"
   id="path53" />
<path
   clip-path="url(#TextBounds_2)"
   d="M223.41 333.877L230.45 333.877L230.45 340.135C232.536 337.555 234.746 335.702 237.079 334.577C239.412 333.451 242.006 332.889 244.86 332.889C251.119 332.889 255.346 335.071 257.541 339.435C258.749 341.823 259.353 345.24 259.353 349.687L259.353 377.972L251.818 377.972L251.818 350.181C251.818 347.491 251.42 345.323 250.624 343.676C249.307 340.931 246.919 339.559 243.46 339.559C241.704 339.559 240.263 339.737 239.137 340.094C237.106 340.698 235.322 341.905 233.785 343.717C232.55 345.172 231.747 346.675 231.376 348.225C231.006 349.776 230.821 351.993 230.821 354.875L230.821 377.972L223.41 377.972L223.41 333.877Z"
   id="path55" />
<path
   clip-path="url(#TextBounds_2)"
   d="M288.668 332.889C291.797 332.889 294.83 333.623 297.767 335.091C300.704 336.56 302.941 338.461 304.478 340.794C305.96 343.017 306.948 345.611 307.442 348.575C307.881 350.606 308.101 353.845 308.101 358.292L275.781 358.292C275.918 362.766 276.975 366.355 278.951 369.058C280.927 371.762 283.988 373.114 288.132 373.114C292.002 373.114 295.09 371.838 297.396 369.285C298.714 367.803 299.647 366.087 300.196 364.138L307.483 364.138C307.291 365.758 306.653 367.563 305.569 369.553C304.485 371.543 303.27 373.169 301.925 374.431C299.674 376.627 296.888 378.11 293.567 378.878C291.783 379.317 289.765 379.537 287.515 379.537C282.025 379.537 277.373 377.54 273.557 373.546C269.742 369.553 267.834 363.96 267.834 356.769C267.834 349.687 269.756 343.937 273.599 339.517C277.441 335.098 282.464 332.889 288.668 332.889ZM300.484 352.404C300.182 349.193 299.482 346.627 298.384 344.705C296.353 341.137 292.963 339.353 288.215 339.353C284.811 339.353 281.956 340.581 279.651 343.038C277.345 345.494 276.124 348.617 275.987 352.404L300.484 352.404Z"
   id="path57" />
<path
   clip-path="url(#TextBounds_2)"
   d="M344.744 333.877L352.937 333.877C351.894 336.704 349.575 343.154 345.979 353.228C343.289 360.803 341.039 366.979 339.227 371.755C334.945 383.009 331.926 389.871 330.169 392.341C328.412 394.812 325.393 396.047 321.111 396.047C320.068 396.047 319.265 396.006 318.703 395.923C318.14 395.841 317.447 395.69 316.623 395.47L316.623 388.718C317.914 389.075 318.847 389.295 319.423 389.377C320 389.459 320.507 389.5 320.947 389.5C322.319 389.5 323.328 389.274 323.973 388.821C324.618 388.368 325.16 387.812 325.599 387.154C325.736 386.934 326.23 385.809 327.081 383.778C327.932 381.746 328.55 380.237 328.934 379.249L312.63 333.877L321.029 333.877L332.845 369.779L344.744 333.877Z"
   id="path59" />
</g>
<g
   opacity="1"
   id="g67">
<path
   d="M263.101 220.606C242.89 220.606 226.506 204.222 226.506 184.011C226.506 163.8 242.89 147.416 263.101 147.416C283.312 147.416 299.696 163.8 299.696 184.011C299.696 204.222 283.312 220.606 263.101 220.606Z"
   fill="#000000"
   fill-rule="nonzero"
   opacity="1"
   stroke="none"
   id="path63" />
<path
   d="M143.55 294.824L213.559 294.824C226.83 281.936 244.599 274.723 263.099 274.715C281.569 274.745 299.304 281.956 312.554 294.824L382.653 294.824C382.653 264.613 360.042 238.245 325.984 223.518C308.669 238.948 286.291 247.481 263.099 247.499C239.908 247.48 217.532 238.946 200.218 223.518C166.161 238.245 143.55 264.613 143.55 294.824Z"
   fill="#000000"
   fill-rule="nonzero"
   opacity="1"
   stroke="none"
   id="path65" />
</g>
<path
   d="M-21.8574 525.612C-21.8574 473.001 20.7928 430.351 73.4045 430.351C126.016 430.351 168.666 473.001 168.666 525.612C168.666 578.224 126.016 620.874 73.4045 620.874C20.7928 620.874-21.8574 578.224-21.8574 525.612Z"
   fill="#351DC2"
   fill-rule="nonzero"
   opacity="1"
   stroke="none"
   id="path69" />
<g
   opacity="1"
   id="g75">
<path
   d="M73.7233 525.613C73.7233 513.073 83.8882 502.909 96.4272 502.909C108.966 502.909 119.131 513.073 119.131 525.613C119.131 538.152 108.966 548.316 96.4272 548.316C83.8882 548.316 73.7233 538.152 73.7233 525.613Z"
   fill="#ffffff"
   fill-rule="nonzero"
   opacity="1"
   stroke="none"
   id="path71" />
<path
   d="M27.6778 451.442L27.6778 494.876C35.6741 503.11 40.1492 514.134 40.1541 525.611C40.1356 537.07 35.6615 548.073 27.6778 556.293L27.6778 599.783C46.4215 599.783 62.7801 585.755 71.9168 564.625C62.3444 553.883 57.05 540 57.0388 525.611C57.0507 511.224 62.345 497.341 71.9168 486.6C62.7801 465.47 46.4215 451.442 27.6778 451.442Z"
   fill="#ffffff"
   fill-rule="nonzero"
   opacity="1"
   stroke="none"
   id="path73" />
</g>
</g>
<g
   clip-path="url(#ArtboardFrame)"
   id="Livello-1"
   vectornator:layerName="Livello 1">
<path
   d="M360.456 17.5567C360.456 17.5567 361.557 14.3078 354.59 10.5052C347.623 6.70273 351.655-1.04261 332.079 0.117094C318.71 0.909064 316.877 0.293423 308 9.85249C297.243 21.4351 315.297 61.6068 315.297 61.6068L319.88 56.8798C319.88 56.8798 321.14 38.4955 328.052 31.8122C342.552 17.7924 360.456 17.5567 360.456 17.5567Z"
   fill="#d52e2e"
   fill-rule="nonzero"
   opacity="1"
   stroke="#000000"
   stroke-linecap="butt"
   stroke-linejoin="round"
   stroke-width="0.5"
   id="path78"
   style="stroke-linecap:round;stroke-width:3;stroke-dasharray:none;stroke:#ffffff;stroke-opacity:1" />
<path
   d="M321.364 36.351C316.831 42.8745 324.958 45.0984 329.951 43.0617C334.945 41.025 328.449 37.8015 338.598 30.8797C348.748 23.958 358.427 28.4983 362.348 20.205C364.588 15.4679 364.118 17.7907 359.69 11.0766C355.815 5.20181 347.807 14.5066 347.807 14.5066C347.807 14.5066 338.231 17.187 335.369 19.5828C331.816 22.5576 331.136 23.401 325.435 27.0988C319.894 30.6926 323.443 33.3586 321.364 36.351Z"
   fill="#eaeaea"
   fill-rule="nonzero"
   opacity="1"
   stroke="#000000"
   stroke-linecap="butt"
   stroke-linejoin="round"
   stroke-width="0.5"
   id="path80"
   style="stroke-width:3;stroke-dasharray:none;stroke-linecap:round;paint-order:normal;stroke:#ffffff;stroke-opacity:1;fill:#e2def9;fill-opacity:1" />
<path
   d="M310.807 61.8679C310.807 58.7937 313.562 56.3016 316.961 56.3016C320.361 56.3016 323.116 58.7937 323.116 61.8679C323.116 64.942 320.361 67.4341 316.961 67.4341C313.562 67.4341 310.807 64.942 310.807 61.8679Z"
   fill="#eaeaea"
   fill-rule="nonzero"
   opacity="1"
   stroke="#000000"
   stroke-linecap="butt"
   stroke-linejoin="round"
   stroke-width="0.5"
   id="path82"
   style="stroke-width:3;stroke-dasharray:none;stroke:#ffffff;stroke-opacity:1;fill:#e2def9;fill-opacity:1" />

<text
   xml:space="preserve"
   style="font-weight:600;font-size:25.0784px;line-height:3.7;font-family:Poppins;-inkscape-font-specification:'Poppins Semi-Bold';letter-spacing:-1.49933px;word-spacing:-0.11554px;fill:#361dc2;stroke-width:0;stroke-linecap:round"
   x="168.32501"
   y="93.240013"
   id="text1"><tspan
     sodipodi:role="line"
     id="tspan1"
     x="168.32501"
     y="93.240013"
     style="stroke-width:0">opensource</tspan></text></g>
</svg>
