<?xml version="1.0" encoding="UTF-8" standalone="no"?>
<!-- Created with Inkscape (http://www.inkscape.org/) -->

<svg
   width="67.204163mm"
   height="67.204163mm"
   viewBox="0 0 67.204163 67.204163"
   version="1.1"
   id="svg5"
   sodipodi:docname="logo_project.svg"
   inkscape:version="1.1.2 (0a00cf5339, 2022-02-04, custom)"
   xmlns:inkscape="http://www.inkscape.org/namespaces/inkscape"
   xmlns:sodipodi="http://sodipodi.sourceforge.net/DTD/sodipodi-0.dtd"
   xmlns="http://www.w3.org/2000/svg"
   xmlns:svg="http://www.w3.org/2000/svg">
  <sodipodi:namedview
     id="namedview7"
     pagecolor="#505050"
     bordercolor="#ffffff"
     borderopacity="1"
     inkscape:pageshadow="0"
     inkscape:pageopacity="0"
     inkscape:pagecheckerboard="1"
     inkscape:document-units="mm"
     showgrid="false"
     inkscape:snap-grids="true"
     inkscape:zoom="1"
     inkscape:cx="213.5"
     inkscape:cy="94"
     inkscape:window-width="1920"
     inkscape:window-height="1027"
     inkscape:window-x="1912"
     inkscape:window-y="-8"
     inkscape:window-maximized="1"
     inkscape:current-layer="layer1" />
  <defs
     id="defs2" />
  <g
     inkscape:label="Livello 1"
     inkscape:groupmode="layer"
     id="layer1"
     transform="translate(-18.256252,-62.970833)">
    <text
       xml:space="preserve"
       style="font-style:normal;font-weight:normal;font-size:37.1784px;line-height:1.25;font-family:sans-serif;fill:#ffffff;fill-opacity:1;stroke:none;stroke-width:0.929461"
       x="43.149399"
       y="38.259895"
       id="text6501"><tspan
         sodipodi:role="line"
         id="tspan6499"
         style="font-style:normal;font-variant:normal;font-weight:900;font-stretch:normal;font-family:Raleway;-inkscape-font-specification:'Raleway Heavy';fill:#ffffff;stroke-width:0.929461"
         x="43.149399"
         y="38.259895">Bakney</tspan></text>
    <circle
       id="path15437"
       cx="34.421558"
       cy="24.663868"
       r="4.0399342"
       style="fill:#ffffff;stroke-width:0.224203" />
    <path
       id="rect15541"
       style="fill:#ffffff;stroke-width:0.300109"
       d="m 22.18831,11.465967 v 7.728727 a 7.8545017,7.8545017 0 0 1 2.220018,5.468917 7.8545017,7.8545017 0 0 1 -2.220018,5.459614 v 7.738546 c 3.335239,0 6.246093,-2.496124 7.87187,-6.255948 A 10.447151,10.447151 0 0 1 27.412796,24.663611 10.447151,10.447151 0 0 1 30.06018,17.721915 C 28.434403,13.96209 25.523549,11.465967 22.18831,11.465967 Z" />
    <text
       xml:space="preserve"
       style="font-style:normal;font-weight:normal;font-size:37.1784px;line-height:1.25;font-family:sans-serif;fill:#000000;fill-opacity:1;stroke:none;stroke-width:0.929461"
       x="46.398022"
       y="198.92648"
       id="text6501-5"><tspan
         sodipodi:role="line"
         id="tspan6499-9"
         style="font-style:normal;font-variant:normal;font-weight:900;font-stretch:normal;font-family:Raleway;-inkscape-font-specification:'Raleway Heavy';stroke-width:0.929461"
         x="46.398022"
         y="198.92648">Bakney</tspan></text>
    <g
       id="g17765"
       transform="matrix(0,-1.5196324,1.5196324,0,-90.978553,312.41924)">
      <circle
         id="path15437-7"
         cx="123.65446"
         cy="135.58881"
         r="8.4943895"
         style="stroke-width:0.471411" />
      <path
         id="rect15541-3"
         style="stroke-width:0.631011"
         d="m 97.932763,107.83881 v 16.25045 a 16.514922,16.514922 0 0 1 4.667827,11.49899 16.514922,16.514922 0 0 1 -4.667827,11.47941 v 16.27112 c 7.012697,0 13.133057,-5.24836 16.551437,-13.1538 a 21.966242,21.966242 0 0 1 -5.56642,-14.59673 21.966242,21.966242 0 0 1 5.56642,-14.59566 c -3.41838,-7.90542 -9.53874,-13.15378 -16.551437,-13.15378 z" />
    </g>
    <circle
       style="fill:#351DC2;fill-opacity:1;stroke-width:0.264583"
       id="path37"
       cx="51.858334"
       cy="96.572914"
       r="33.602081" />
    <g
       id="g985"
       transform="matrix(1.3117463,0,0,1.3117463,-17.059577,-29.585647)">
      <circle
         id="path15437-6"
         cx="61.150394"
         cy="96.176041"
         style="fill:#ffffff;stroke-width:0.338817"
         r="6.1051807" />
      <path
         id="rect15541-5"
         style="fill:#ffffff;stroke-width:0.453527"
         d="m 42.66341,76.231264 v 11.679715 a 11.869787,11.869787 0 0 1 3.354912,8.264673 11.869787,11.869787 0 0 1 -3.354912,8.250618 v 11.69454 c 5.040242,0 9.439142,-3.77215 11.896034,-9.45404 A 15.787819,15.787819 0 0 1 50.558702,96.175652 15.787819,15.787819 0 0 1 54.559444,85.685304 c -2.456892,-5.681878 -6.855792,-9.45404 -11.896034,-9.45404 z" />
    </g>
  </g>
</svg>
